HIERARCHY
ROOT Hips
{
	OFFSET 0.000000 71.427986 0.000000
	CHANNELS 6 Xposition Yposition Zposition Xrotation Yrotation Zrotation
	JOINT Pelvis
	{
		OFFSET 0.000000 0.000000 0.000000
		CHANNELS 3 Xrotation Yrotation Zrotation
		JOINT LeftUpLeg
		{
			OFFSET 6.797100 -2.508499 -1.318700
			CHANNELS 3 Xrotation Yrotation Zrotation
			JOINT LeftLeg
			{
				OFFSET 0.069008 -29.241863 0.690200
				CHANNELS 3 Xrotation Yrotation Zrotation
				JOINT LeftFoot
				{
					OFFSET -0.069008 -29.568123 -0.266800
					CHANNELS 3 Xrotation Yrotation Zrotation
					JOINT LeftToeBase
					{
						OFFSET 3.145500 -8.631000 16.059900
						CHANNELS 3 Xrotation Yrotation Zrotation
						End Site
						{
							OFFSET 0.000000 18.501587 0.000000
						}
					}
				}
			}
			JOINT Left_ShortSleeve
			{
				OFFSET 0.265923 -10.480953 1.153800
				CHANNELS 3 Xrotation Yrotation Zrotation
				End Site
				{
					OFFSET 1.725763 19.823879 0.000000
				}
			}
		}
		JOINT RightUpLeg
		{
			OFFSET -6.797100 -2.508499 -1.318700
			CHANNELS 3 Xrotation Yrotation Zrotation
			JOINT RightLeg
			{
				OFFSET -0.082453 -29.241932 0.688000
				CHANNELS 3 Xrotation Yrotation Zrotation
				JOINT RightFoot
				{
					OFFSET 0.082453 -29.568058 -0.264600
					CHANNELS 3 Xrotation Yrotation Zrotation
					JOINT RightToeBase
					{
						OFFSET -3.115300 -8.682800 16.113400
						CHANNELS 3 Xrotation Yrotation Zrotation
						End Site
						{
							OFFSET 0.000000 18.567114 0.000000
						}
					}
				}
			}
			JOINT Right_ShortSleeve
			{
				OFFSET -0.265923 -10.480953 1.153800
				CHANNELS 3 Xrotation Yrotation Zrotation
				End Site
				{
					OFFSET -1.725766 19.823910 0.000000
				}
			}
		}
	}
	JOINT Spine
	{
		OFFSET 0.000000 13.368103 0.470500
		CHANNELS 3 Xrotation Yrotation Zrotation
		JOINT Spine1
		{
			OFFSET 0.147000 13.837402 0.538800
			CHANNELS 3 Xrotation Yrotation Zrotation
			JOINT Spine2
			{
				OFFSET 0.168000 16.242897 -1.435500
				CHANNELS 3 Xrotation Yrotation Zrotation
				JOINT Neck
				{
					OFFSET 0.217200 18.631500 -1.679100
					CHANNELS 3 Xrotation Yrotation Zrotation
					JOINT Head
					{
						OFFSET 0.000000 6.599396 1.385900
						CHANNELS 3 Xrotation Yrotation Zrotation
						JOINT Hat
						{
							OFFSET -0.532200 27.220596 -10.096100
							CHANNELS 3 Xrotation Yrotation Zrotation
							End Site
							{
								OFFSET 0.000000 22.029861 0.000000
							}
						}
						JOINT HairD
						{
							OFFSET -10.777400 17.437393 -1.325900
							CHANNELS 3 Xrotation Yrotation Zrotation
							JOINT HairD1
							{
								OFFSET -3.290299 -11.051193 1.062200
								CHANNELS 3 Xrotation Yrotation Zrotation
								End Site
								{
									OFFSET 0.000000 11.579437 0.000000
								}
							}
						}
						JOINT HairB
						{
							OFFSET -10.777400 17.437393 1.467900
							CHANNELS 3 Xrotation Yrotation Zrotation
							JOINT HairB1
							{
								OFFSET -1.561200 -12.956299 3.590200
								CHANNELS 3 Xrotation Yrotation Zrotation
								End Site
								{
									OFFSET 0.000000 13.534866 0.000000
								}
							}
						}
						JOINT HairA
						{
							OFFSET 9.713100 17.437393 1.467900
							CHANNELS 3 Xrotation Yrotation Zrotation
							JOINT HairA1
							{
								OFFSET 1.561200 -12.956299 3.590200
								CHANNELS 3 Xrotation Yrotation Zrotation
								End Site
								{
									OFFSET 0.000000 13.534866 0.000000
								}
							}
						}
						JOINT HairC
						{
							OFFSET 9.713100 17.437393 -1.325900
							CHANNELS 3 Xrotation Yrotation Zrotation
							JOINT HairC1
							{
								OFFSET 3.290300 -11.051193 1.062200
								CHANNELS 3 Xrotation Yrotation Zrotation
								End Site
								{
									OFFSET 0.000000 11.579437 0.000000
								}
							}
						}
					}
				}
				JOINT LeftShoulder
				{
					OFFSET 5.101800 15.108002 -2.763700
					CHANNELS 3 Xrotation Yrotation Zrotation
					JOINT LeftArm
					{
						OFFSET 9.825497 2.506317 -1.597400
						CHANNELS 3 Xrotation Yrotation Zrotation
						JOINT LeftForeArm
						{
							OFFSET 21.966244 0.000000 0.000000
							CHANNELS 3 Xrotation Yrotation Zrotation
							JOINT LeftHand
							{
								OFFSET 33.879036 0.000000 0.000000
								CHANNELS 3 Xrotation Yrotation Zrotation
								JOINT LeftHandThumb1
								{
									OFFSET 6.715286 -2.359680 3.363841
									CHANNELS 3 Xrotation Yrotation Zrotation
									JOINT LeftHandThumb2
									{
										OFFSET 2.507072 -1.447464 1.447461
										CHANNELS 3 Xrotation Yrotation Zrotation
										JOINT LeftHandThumb3
										{
											OFFSET 2.898338 -1.673355 1.673357
											CHANNELS 3 Xrotation Yrotation Zrotation
											End Site
											{
												OFFSET -0.295959 3.727692 -0.131651
											}
										}
									}
								}
								JOINT LeftHandIndex1
								{
									OFFSET 14.190811 -0.254547 3.840278
									CHANNELS 3 Xrotation Yrotation Zrotation
									JOINT LeftHandIndex2
									{
										OFFSET 3.551727 0.000000 -0.000000
										CHANNELS 3 Xrotation Yrotation Zrotation
										JOINT LeftHandIndex3
										{
											OFFSET 2.894196 0.000000 0.000000
											CHANNELS 3 Xrotation Yrotation Zrotation
											End Site
											{
												OFFSET -1.000603 2.690872 0.366626
											}
										}
									}
								}
								JOINT LeftHandMiddle1
								{
									OFFSET 13.776489 0.000000 0.000000
									CHANNELS 3 Xrotation Yrotation Zrotation
									JOINT LeftHandMiddle2
									{
										OFFSET 3.438232 0.000000 0.000000
										CHANNELS 3 Xrotation Yrotation Zrotation
										JOINT LeftHandMiddle3
										{
											OFFSET 3.691551 0.000000 0.000000
											CHANNELS 3 Xrotation Yrotation Zrotation
											End Site
											{
												OFFSET -1.082298 3.499527 0.457670
											}
										}
									}
								}
								JOINT LeftHandRing1
								{
									OFFSET 13.966164 -0.268127 -3.067488
									CHANNELS 3 Xrotation Yrotation Zrotation
									JOINT LeftHandRing2
									{
										OFFSET 3.162567 0.000000 0.000000
										CHANNELS 3 Xrotation Yrotation Zrotation
										JOINT LeftHandRing3
										{
											OFFSET 3.324348 0.000000 0.000000
											CHANNELS 3 Xrotation Yrotation Zrotation
											End Site
											{
												OFFSET -0.861900 3.184998 0.405154
											}
										}
									}
								}
								JOINT LeftHandPinky1
								{
									OFFSET 13.131393 -0.168503 -5.746925
									CHANNELS 3 Xrotation Yrotation Zrotation
									JOINT LeftHandPinky2
									{
										OFFSET 2.849182 0.000000 0.000000
										CHANNELS 3 Xrotation Yrotation Zrotation
										JOINT LeftHandPinky3
										{
											OFFSET 2.805038 0.000000 0.000000
											CHANNELS 3 Xrotation Yrotation Zrotation
											End Site
											{
												OFFSET -0.882500 2.642609 0.325652
											}
										}
									}
								}
							}
							JOINT Left_Sleeve
							{
								OFFSET 6.592125 -0.646545 0.805568
								CHANNELS 3 Xrotation Yrotation Zrotation
								End Site
								{
									OFFSET -0.000179 20.275787 -0.000000
								}
							}
						}
					}
				}
				JOINT RightShoulder
				{
					OFFSET -5.731700 15.108002 -2.763700
					CHANNELS 3 Xrotation Yrotation Zrotation
					JOINT RightArm
					{
						OFFSET -9.825497 2.506317 -1.597400
						CHANNELS 3 Xrotation Yrotation Zrotation
						JOINT RightForeArm
						{
							OFFSET -21.966242 0.000000 0.000000
							CHANNELS 3 Xrotation Yrotation Zrotation
							JOINT RightHand
							{
								OFFSET -33.879032 0.000000 0.000000
								CHANNELS 3 Xrotation Yrotation Zrotation
								JOINT RightHandThumb1
								{
									OFFSET -6.715286 -2.359680 3.363841
									CHANNELS 3 Xrotation Yrotation Zrotation
									JOINT RightHandThumb2
									{
										OFFSET -2.507072 -1.447464 1.447461
										CHANNELS 3 Xrotation Yrotation Zrotation
										JOINT RightHandThumb3
										{
											OFFSET -2.898338 -1.673355 1.673357
											CHANNELS 3 Xrotation Yrotation Zrotation
											End Site
											{
												OFFSET 0.295959 3.727692 -0.131651
											}
										}
									}
								}
								JOINT RightHandIndex1
								{
									OFFSET -14.190811 -0.254547 3.840278
									CHANNELS 3 Xrotation Yrotation Zrotation
									JOINT RightHandIndex2
									{
										OFFSET -3.551727 0.000000 -0.000000
										CHANNELS 3 Xrotation Yrotation Zrotation
										JOINT RightHandIndex3
										{
											OFFSET -2.894196 0.000000 0.000000
											CHANNELS 3 Xrotation Yrotation Zrotation
											End Site
											{
												OFFSET 1.000603 2.690872 0.366626
											}
										}
									}
								}
								JOINT RightHandMiddle1
								{
									OFFSET -13.776489 0.000000 0.000000
									CHANNELS 3 Xrotation Yrotation Zrotation
									JOINT RightHandMiddle2
									{
										OFFSET -3.438232 0.000000 0.000000
										CHANNELS 3 Xrotation Yrotation Zrotation
										JOINT RightHandMiddle3
										{
											OFFSET -3.691551 0.000000 0.000000
											CHANNELS 3 Xrotation Yrotation Zrotation
											End Site
											{
												OFFSET 1.082298 3.499527 0.457670
											}
										}
									}
								}
								JOINT RightHandRing1
								{
									OFFSET -13.966164 -0.268127 -3.067488
									CHANNELS 3 Xrotation Yrotation Zrotation
									JOINT RightHandRing2
									{
										OFFSET -3.162567 0.000000 0.000000
										CHANNELS 3 Xrotation Yrotation Zrotation
										JOINT RightHandRing3
										{
											OFFSET -3.324348 0.000000 0.000000
											CHANNELS 3 Xrotation Yrotation Zrotation
											End Site
											{
												OFFSET 0.861900 3.184998 0.405154
											}
										}
									}
								}
								JOINT RightHandPinky1
								{
									OFFSET -13.131393 -0.168503 -5.746925
									CHANNELS 3 Xrotation Yrotation Zrotation
									JOINT RightHandPinky2
									{
										OFFSET -2.849182 0.000000 0.000000
										CHANNELS 3 Xrotation Yrotation Zrotation
										JOINT RightHandPinky3
										{
											OFFSET -2.805038 0.000000 0.000000
											CHANNELS 3 Xrotation Yrotation Zrotation
											End Site
											{
												OFFSET 0.882500 2.642609 0.325652
											}
										}
									}
								}
							}
							JOINT Right_Sleeve
							{
								OFFSET -6.592125 -0.646545 0.805568
								CHANNELS 3 Xrotation Yrotation Zrotation
								End Site
								{
									OFFSET 0.000179 20.275787 -0.000000
								}
							}
						}
					}
				}
				JOINT Bind_Right_JacketString
				{
					OFFSET -3.534800 11.969597 7.200700
					CHANNELS 3 Xrotation Yrotation Zrotation
					JOINT Bind_Right_JacketString1
					{
						OFFSET -0.319900 -6.102600 2.794100
						CHANNELS 3 Xrotation Yrotation Zrotation
						End Site
						{
							OFFSET 0.000000 6.719452 0.000000
						}
					}
				}
				JOINT Bind_Left_JacketString
				{
					OFFSET 2.904800 11.969597 7.200700
					CHANNELS 3 Xrotation Yrotation Zrotation
					JOINT Bind_Left_JacketString1
					{
						OFFSET 0.364800 -5.904503 3.186800
						CHANNELS 3 Xrotation Yrotation Zrotation
						End Site
						{
							OFFSET 0.000000 6.719513 0.000000
						}
					}
				}
				JOINT HairE
				{
					OFFSET 5.915200 17.612701 -11.592200
					CHANNELS 3 Xrotation Yrotation Zrotation
					JOINT HairE1
					{
						OFFSET 0.289200 -7.171898 -1.284500
						CHANNELS 3 Xrotation Yrotation Zrotation
						End Site
						{
							OFFSET 0.000000 7.291756 0.000000
						}
					}
				}
				JOINT HairF
				{
					OFFSET -0.864800 17.612701 -11.592200
					CHANNELS 3 Xrotation Yrotation Zrotation
					JOINT HairF1
					{
						OFFSET 0.000000 -14.087097 -2.127501
						CHANNELS 3 Xrotation Yrotation Zrotation
						End Site
						{
							OFFSET 0.000000 14.246841 0.000000
						}
					}
				}
				JOINT HairG
				{
					OFFSET -8.087700 17.612701 -11.592200
					CHANNELS 3 Xrotation Yrotation Zrotation
					JOINT HairG1
					{
						OFFSET -0.293600 -6.081398 -0.910100
						CHANNELS 3 Xrotation Yrotation Zrotation
						End Site
						{
							OFFSET 0.000000 6.156120 0.000000
						}
					}
				}
			}
		}
	}
	JOINT Pouch
	{
		OFFSET 0.000000 4.394501 10.847300
		CHANNELS 3 Xrotation Yrotation Zrotation
		End Site
		{
			OFFSET 0.000000 21.880577 0.000000
		}
	}
	JOINT Bag
	{
		OFFSET -13.229000 4.813004 -0.593300
		CHANNELS 3 Xrotation Yrotation Zrotation
		End Site
		{
			OFFSET 0.000000 21.880577 0.000000
		}
	}
	JOINT OccupyGuyFacialAnim_Joint
	{
		OFFSET 1.000000 -70.206398 -1.655000
		CHANNELS 3 Xrotation Yrotation Zrotation
		End Site
		{
			OFFSET 0.000000 21.880577 0.000000
		}
	}
}
MOTION
Frames: 4
Frame Time: 0.016667
6.605649 62.433792 0.111036 9.454476 -0.686461 -10.829564 0.000001 -0.000000 -0.000001 -51.032909 -7.296621 27.794360 49.322647 -1.502990 -1.718040 -5.746293 1.084306 -11.440493 0.000000 -0.000001 -0.000000 -0.000003 -0.000000 -0.000001 -40.420035 -26.968474 3.300663 54.405127 5.785367 -0.849631 -23.978583 -19.686820 -8.113272 -0.000000 0.000002 -0.000000 0.000001 -0.000001 -0.000002 8.518046 -3.163434 -6.731565 6.795703 -2.703224 -6.539374 6.822739 -2.529058 -6.561661 -6.756041 -0.095602 -6.250944 -31.736764 -12.121328 11.385210 -0.000000 0.000000 -0.000001 -0.000000 0.000000 -0.000001 -0.000000 0.000000 -0.000001 -0.000000 0.000000 -0.000001 -0.000001 -0.000000 -0.000001 -0.000000 0.000000 -0.000001 -0.000001 -0.000000 -0.000001 -0.000000 0.000000 -0.000001 -0.000000 0.000000 -0.000001 0.657400 -5.474598 -9.273243 -31.650875 6.573777 -19.060512 0.000014 -57.717264 0.000014 -13.439160 -6.592295 17.306772 -6.000702 -6.126827 4.616749 7.611101 24.884949 2.404788 -0.000003 -0.000001 0.000001 2.912878 7.374280 -59.057961 2.905702 5.057876 -59.732245 -0.000002 0.000001 -0.000000 2.252967 6.917807 -51.180779 3.608291 5.405535 -67.425858 0.000004 -0.000001 0.000001 3.218370 7.543723 -62.485378 3.684677 5.436542 -68.234327 0.000002 0.000001 -0.000002 3.994145 7.876005 -70.768813 2.411826 4.736409 -53.951756 0.000000 -0.000001 -0.000001 0.000001 0.000004 -0.000002 0.361046 -0.787754 2.746807 26.141069 -12.666229 76.530822 0.000043 79.226793 -0.000021 -6.073254 16.835025 -10.845133 -7.540282 -3.885161 -4.751891 7.955461 -28.077789 -3.121219 0.000000 -0.000001 0.000001 0.055199 3.456505 6.528611 0.319248 -1.696211 21.316705 0.000003 -0.000000 0.000002 -0.862792 -0.131516 17.725505 0.409666 -1.911717 24.188121 -0.000003 -0.000000 -0.000001 2.184503 -6.710167 36.224175 0.531175 -2.161840 27.606153 0.000001 0.000002 0.000000 6.372303 -15.465777 52.716985 0.699902 -2.457413 31.790928 -0.000002 -0.000002 0.000002 -0.000001 0.000001 -0.000002 -0.000003 0.000001 0.000003 -0.000004 -0.000000 0.000001 -0.000003 0.000001 0.000003 -0.000003 0.000001 0.000003 -0.000003 0.000001 0.000003 -0.000004 -0.000000 0.000002 -0.000003 0.000001 0.000003 -0.000003 0.000001 0.000003 -0.000003 0.000001 0.000003 -0.000004 -0.000000 0.000002 0.000001 -0.000000 -0.000001 0.000001 -0.000000 -0.000001 0.000001 -0.000000 -0.000001 
6.627009 62.116966 -0.398132 9.204556 -1.767496 -10.537798 -0.000001 0.000000 0.000000 -51.391597 -7.638373 27.941068 50.380910 -0.726650 -1.718998 -5.829797 1.085272 -11.580529 0.000000 0.000000 -0.000000 -0.000002 0.000001 0.000000 -41.508572 -26.056072 3.488034 55.440553 5.848274 -0.847118 -23.841334 -19.870439 -8.369030 -0.000000 -0.000000 -0.000000 -0.000001 0.000003 0.000001 9.003005 -2.806321 -6.453940 7.111672 -2.571604 -6.414010 7.134270 -2.411996 -6.415061 -6.827573 -0.078845 -6.203642 -31.801480 -11.665234 10.997522 0.000000 -0.000000 -0.000000 0.000000 -0.000000 -0.000000 0.000000 -0.000000 -0.000001 0.000000 -0.000000 0.000001 -0.000000 0.000000 -0.000000 0.000000 -0.000000 0.000001 -0.000000 0.000000 -0.000000 0.000000 -0.000000 -0.000000 0.000000 -0.000000 -0.000000 0.636257 -5.572589 -9.846507 -30.413098 9.620329 -20.356756 -0.000007 -56.736991 -0.000009 -14.343213 -6.360670 17.068854 -6.000699 -6.126821 4.616756 7.611099 24.884947 2.404793 -0.000005 0.000001 -0.000000 2.751050 7.274461 -57.192869 2.743400 4.959989 -57.873600 0.000000 0.000000 -0.000000 2.121142 6.809325 -49.506208 3.475114 5.348462 -66.004592 0.000002 0.000002 -0.000001 3.090077 7.475438 -61.059815 3.661136 5.427124 -67.985736 -0.000001 0.000000 -0.000003 3.970103 7.867636 -70.519190 2.461741 4.772215 -54.554019 -0.000002 -0.000001 0.000001 -0.000001 0.000001 -0.000001 0.435995 -0.154703 3.207684 23.731624 -11.004977 75.385303 0.000070 77.036297 -0.000068 -6.027877 16.951329 -10.577452 -7.540280 -3.885164 -4.751894 7.955458 -28.077788 -3.121220 0.000001 0.000000 -0.000001 0.053067 3.449675 6.560500 0.320766 -1.700103 21.368030 -0.000001 0.000003 0.000001 -0.863773 -0.045915 17.352804 0.369563 -1.819817 22.956443 -0.000003 0.000004 -0.000002 2.141060 -6.687460 35.625836 0.466197 -2.032815 25.830585 -0.000001 -0.000000 -0.000001 6.464557 -15.829402 52.143560 0.608262 -2.303132 29.584705 -0.000001 -0.000001 -0.000001 -0.000001 0.000002 0.000003 -0.000001 -0.000001 -0.000003 -0.000002 0.000001 0.000001 -0.000001 -0.000001 -0.000003 -0.000001 -0.000001 -0.000003 -0.000001 -0.000001 -0.000003 -0.000002 0.000001 0.000001 -0.000001 -0.000001 -0.000003 -0.000001 -0.000001 -0.000003 -0.000001 -0.000001 -0.000003 -0.000002 0.000001 0.000001 -0.000001 0.000000 0.000000 -0.000001 0.000000 0.000000 -0.000001 0.000000 0.000000 
6.638550 61.880783 -0.675565 8.929509 -3.156981 -10.233374 0.000000 -0.000000 0.000000 -51.303545 -7.927490 28.270940 51.409632 0.512153 -1.718838 -6.127214 1.129970 -11.971255 0.000000 -0.000000 -0.000000 -0.000004 0.000000 -0.000000 -42.121217 -25.289271 3.800277 56.216135 6.267773 -0.845631 -23.803401 -19.886548 -8.738344 -0.000000 0.000000 0.000000 -0.000000 0.000001 0.000001 9.447746 -2.449245 -6.177638 7.403570 -2.428328 -6.253431 7.422357 -2.272618 -6.260116 -6.781095 -0.061881 -6.124019 -31.448189 -11.031242 10.615889 -0.000000 -0.000000 0.000001 -0.000000 -0.000000 0.000001 -0.000000 -0.000000 0.000001 -0.000000 -0.000000 -0.000000 0.000000 0.000000 0.000001 -0.000000 -0.000000 -0.000000 0.000000 0.000000 0.000001 -0.000000 -0.000000 0.000001 -0.000000 -0.000000 0.000001 0.598235 -5.646884 -10.458237 -29.130064 12.344776 -22.295095 0.000039 -55.646962 0.000047 -14.802849 -6.104330 16.567035 -6.000700 -6.126820 4.616761 7.611099 24.884944 2.404787 -0.000001 -0.000001 -0.000003 2.566448 7.151433 -55.016621 2.558142 4.839141 -55.704711 0.000003 0.000002 0.000000 1.968708 6.675456 -47.516291 3.314507 5.274366 -64.269806 0.000003 0.000000 -0.000003 2.935849 7.387837 -59.319995 3.593734 5.399481 -67.271155 -0.000001 0.000002 -0.000002 3.901185 7.843011 -69.801549 2.469468 4.777685 -54.646766 -0.000007 -0.000001 0.000001 0.000001 0.000004 0.000001 0.490284 0.534001 3.685340 21.315690 -9.569343 74.194323 -0.000056 75.301367 0.000054 -5.901944 17.065875 -10.420028 -7.540282 -3.885165 -4.751889 7.955464 -28.077793 -3.121221 -0.000000 0.000000 0.000003 0.047257 3.429596 6.654584 0.325285 -1.711588 21.519448 0.000000 -0.000004 -0.000000 -0.863927 -0.016327 17.224357 0.341038 -1.751017 22.041131 -0.000001 0.000003 -0.000002 2.108128 -6.669244 35.181195 0.413860 -1.921015 24.313665 -0.000001 -0.000001 -0.000004 6.538799 -16.144230 51.652370 0.530196 -2.159938 27.579935 0.000002 -0.000001 0.000000 -0.000000 0.000003 0.000002 0.000001 0.000001 0.000001 0.000003 0.000002 0.000002 0.000001 0.000001 0.000001 0.000001 0.000001 0.000001 0.000001 0.000001 0.000001 0.000003 0.000002 0.000003 0.000001 0.000001 0.000001 0.000001 0.000001 0.000001 0.000001 0.000001 0.000001 0.000003 0.000002 0.000003 0.000000 -0.000000 0.000000 0.000000 -0.000000 0.000000 0.000000 -0.000000 0.000000 
6.630386 61.671906 -0.905472 8.733900 -4.260571 -9.972304 -0.000000 0.000000 0.000001 -51.403915 -8.118004 28.455961 52.437015 1.479508 -1.718044 -6.432797 1.163235 -12.059344 0.000000 0.000000 0.000000 0.000000 0.000000 -0.000001 -42.689481 -24.513363 4.131112 56.898017 6.414777 -0.844620 -23.781319 -19.935456 -8.959843 0.000000 -0.000002 0.000000 -0.000003 0.000000 0.000000 9.812981 -2.158830 -5.959953 7.641412 -2.286362 -6.122385 7.656630 -2.105089 -6.121630 -6.723330 -0.048807 -5.995119 -31.190045 -10.624254 10.322462 0.000000 -0.000000 -0.000001 0.000000 -0.000000 -0.000001 0.000000 -0.000000 -0.000001 0.000000 -0.000000 0.000001 0.000000 -0.000001 -0.000001 0.000000 -0.000000 0.000001 0.000000 -0.000001 -0.000001 0.000000 -0.000000 -0.000001 0.000000 -0.000000 -0.000001 0.557990 -5.698680 -11.061471 -27.972070 14.186033 -24.353220 -0.000008 -54.075151 -0.000009 -14.800752 -5.737583 15.942783 -6.000699 -6.126823 4.616760 7.611106 24.884949 2.404794 -0.000001 -0.000002 -0.000003 2.366252 7.006041 -52.589287 2.357026 4.696156 -53.285331 0.000003 -0.000002 -0.000002 1.801740 6.517425 -45.261294 3.131666 5.182644 -62.263601 0.000002 0.000002 -0.000003 2.760943 7.280731 -57.308053 3.487478 5.353941 -66.137248 -0.000003 -0.000000 -0.000001 3.792471 7.802154 -68.662806 2.448841 4.763035 -54.398707 -0.000003 -0.000001 0.000001 0.000002 0.000000 -0.000000 0.544754 1.131274 4.238599 19.483442 -8.250651 73.006635 -0.000018 73.739030 0.000039 -5.737831 17.098168 -10.273485 -7.540282 -3.885165 -4.751891 7.955460 -28.077789 -3.121225 0.000000 -0.000001 0.000002 0.037142 3.396643 6.808509 0.332722 -1.730317 21.767196 -0.000002 -0.000001 0.000000 -0.864002 -0.023506 17.257084 0.323839 -1.707915 21.470891 -0.000002 0.000001 -0.000004 2.087601 -6.657648 34.904227 0.373621 -1.829406 23.084016 0.000000 -0.000000 -0.000002 6.595916 -16.402348 51.253282 0.465284 -2.030954 25.805146 -0.000001 -0.000001 0.000002 0.000001 0.000001 0.000001 0.000002 -0.000000 -0.000001 0.000001 -0.000000 0.000001 0.000002 -0.000000 0.000001 0.000002 -0.000000 0.000001 0.000002 -0.000000 -0.000001 0.000001 -0.000000 0.000001 0.000002 -0.000000 0.000001 0.000002 -0.000000 0.000001 0.000002 -0.000000 -0.000001 0.000001 -0.000000 0.000001 -0.000000 0.000000 0.000001 -0.000000 0.000000 0.000001 -0.000000 0.000000 0.000001 
